HIERARCHY
ROOT Hips
{
	OFFSET -412.092468 -576.953125 89.101967
	CHANNELS 6 Xposition Yposition Zposition Zrotation Yrotation Xrotation
	JOINT Spine
	{
		OFFSET 0.000000 2.080078 8.814247
		CHANNELS 6 Xposition Yposition Zposition Zrotation Yrotation Xrotation
		JOINT Spine1
		{
			OFFSET 0.000000 0.000000 8.844139
			CHANNELS 6 Xposition Yposition Zposition Zrotation Yrotation Xrotation
			JOINT Spine2
			{
				OFFSET 0.000000 0.000000 11.682266
				CHANNELS 6 Xposition Yposition Zposition Zrotation Yrotation Xrotation
				JOINT Spine3
				{
					OFFSET 0.000000 0.000000 11.746696
					CHANNELS 6 Xposition Yposition Zposition Zrotation Yrotation Xrotation
					JOINT Neck
					{
						OFFSET 0.000000 0.000000 17.658264
						CHANNELS 6 Xposition Yposition Zposition Zrotation Yrotation Xrotation
						JOINT Neck1
						{
							OFFSET 0.000000 0.000000 5.101517
							CHANNELS 6 Xposition Yposition Zposition Zrotation Yrotation Xrotation
							JOINT Head
							{
								OFFSET 0.000000 0.000000 5.101517
								CHANNELS 6 Xposition Yposition Zposition Zrotation Yrotation Xrotation
								JOINT HeadEnd
								{
									OFFSET 0.000000 0.000000 11.655090
									CHANNELS 6 Xposition Yposition Zposition Zrotation Yrotation Xrotation
									End Site
									{
										OFFSET 0.000000 0.000000 0.100006
									}
								}
							}
						}
					}
					JOINT RightShoulder
					{
						OFFSET -2.625397 0.000000 11.175217
						CHANNELS 6 Xposition Yposition Zposition Zrotation Yrotation Xrotation
						JOINT RightArm
						{
							OFFSET 0.000000 0.000000 10.434708
							CHANNELS 6 Xposition Yposition Zposition Zrotation Yrotation Xrotation
							JOINT RightForeArm
							{
								OFFSET 0.000000 0.000000 29.628418
								CHANNELS 6 Xposition Yposition Zposition Zrotation Yrotation Xrotation
								JOINT RightHand
								{
									OFFSET 0.000000 0.000000 22.857605
									CHANNELS 6 Xposition Yposition Zposition Zrotation Yrotation Xrotation
									JOINT RightHandThumb1
									{
										OFFSET -2.867310 -2.944275 3.959564
										CHANNELS 6 Xposition Yposition Zposition Zrotation Yrotation Xrotation
										JOINT RightHandThumb2
										{
											OFFSET 0.000000 0.000000 3.350403
											CHANNELS 6 Xposition Yposition Zposition Zrotation Yrotation Xrotation
											JOINT RightHandThumb3
											{
												OFFSET 0.000000 0.000000 3.756516
												CHANNELS 6 Xposition Yposition Zposition Zrotation Yrotation Xrotation
												JOINT RightHandThumb4
												{
													OFFSET 0.000000 0.000000 3.147339
													CHANNELS 6 Xposition Yposition Zposition Zrotation Yrotation Xrotation
													End Site
													{
														OFFSET 0.000000 0.000000 0.100006
													}
												}
											}
										}
									}
									JOINT RightHandIndex1
									{
										OFFSET -0.086761 -2.345276 10.030899
										CHANNELS 6 Xposition Yposition Zposition Zrotation Yrotation Xrotation
										JOINT RightHandIndex2
										{
											OFFSET 0.000000 0.000000 4.061096
											CHANNELS 6 Xposition Yposition Zposition Zrotation Yrotation Xrotation
											JOINT RightHandIndex3
											{
												OFFSET 0.000000 0.000000 3.248871
												CHANNELS 6 Xposition Yposition Zposition Zrotation Yrotation Xrotation
												JOINT RightHandIndex4
												{
													OFFSET 0.000000 0.000000 2.639709
													CHANNELS 6 Xposition Yposition Zposition Zrotation Yrotation Xrotation
													End Site
													{
														OFFSET 0.000000 0.000000 0.100006
													}
												}
											}
										}
									}
									JOINT RightHandMiddle1
									{
										OFFSET 0.104095 -0.006775 9.502945
										CHANNELS 6 Xposition Yposition Zposition Zrotation Yrotation Xrotation
										JOINT RightHandMiddle2
										{
											OFFSET 0.000000 0.000000 4.568726
											CHANNELS 6 Xposition Yposition Zposition Zrotation Yrotation Xrotation
											JOINT RightHandMiddle3
											{
												OFFSET 0.000000 0.000000 3.654984
												CHANNELS 6 Xposition Yposition Zposition Zrotation Yrotation Xrotation
												JOINT RightHandMiddle4
												{
													OFFSET 0.000000 0.000000 2.741241
													CHANNELS 6 Xposition Yposition Zposition Zrotation Yrotation Xrotation
													End Site
													{
														OFFSET 0.000000 0.000000 0.100006
													}
												}
											}
										}
									}
									JOINT RightHandRing1
									{
										OFFSET 0.086761 2.267456 8.921707
										CHANNELS 6 Xposition Yposition Zposition Zrotation Yrotation Xrotation
										JOINT RightHandRing2
										{
											OFFSET 0.000000 0.000000 4.061096
											CHANNELS 6 Xposition Yposition Zposition Zrotation Yrotation Xrotation
											JOINT RightHandRing3
											{
												OFFSET 0.000000 0.000000 3.654984
												CHANNELS 6 Xposition Yposition Zposition Zrotation Yrotation Xrotation
												JOINT RightHandRing4
												{
													OFFSET 0.000000 0.000000 2.741241
													CHANNELS 6 Xposition Yposition Zposition Zrotation Yrotation Xrotation
													End Site
													{
														OFFSET 0.000000 0.000000 0.100006
													}
												}
											}
										}
									}
									JOINT RightHandPinky1
									{
										OFFSET -0.173492 4.467224 7.976990
										CHANNELS 6 Xposition Yposition Zposition Zrotation Yrotation Xrotation
										JOINT RightHandPinky2
										{
											OFFSET 0.000000 0.000000 3.350403
											CHANNELS 6 Xposition Yposition Zposition Zrotation Yrotation Xrotation
											JOINT RightHandPinky3
											{
												OFFSET 0.000000 0.000000 2.842758
												CHANNELS 6 Xposition Yposition Zposition Zrotation Yrotation Xrotation
												JOINT RightHandPinky4
												{
													OFFSET 0.000000 0.000000 2.639709
													CHANNELS 6 Xposition Yposition Zposition Zrotation Yrotation Xrotation
													End Site
													{
														OFFSET 0.000000 0.000000 0.100006
													}
												}
											}
										}
									}
									JOINT RightForeArmEnd
									{
										OFFSET 0.000000 0.000000 0.000000
										CHANNELS 6 Xposition Yposition Zposition Zrotation Yrotation Xrotation
										End Site
										{
											OFFSET 0.000000 0.000000 0.100006
										}
									}
								}
								JOINT RightArmEnd
								{
									OFFSET 0.000000 0.000000 0.000000
									CHANNELS 6 Xposition Yposition Zposition Zrotation Yrotation Xrotation
									End Site
									{
										OFFSET 0.000000 0.000000 0.100006
									}
								}
							}
						}
					}
					JOINT LeftShoulder
					{
						OFFSET 2.625397 0.000000 11.175217
						CHANNELS 6 Xposition Yposition Zposition Zrotation Yrotation Xrotation
						JOINT LeftArm
						{
							OFFSET 0.000000 0.000000 10.813629
							CHANNELS 6 Xposition Yposition Zposition Zrotation Yrotation Xrotation
							JOINT LeftForeArm
							{
								OFFSET 0.000000 0.000000 28.724777
								CHANNELS 6 Xposition Yposition Zposition Zrotation Yrotation Xrotation
								JOINT LeftHand
								{
									OFFSET 0.644379 0.328857 25.716171
									CHANNELS 6 Xposition Yposition Zposition Zrotation Yrotation Xrotation
									JOINT LeftHandThumb1
									{
										OFFSET 2.867310 -2.944275 3.959564
										CHANNELS 6 Xposition Yposition Zposition Zrotation Yrotation Xrotation
										JOINT LeftHandThumb2
										{
											OFFSET 0.000000 0.000000 3.350403
											CHANNELS 6 Xposition Yposition Zposition Zrotation Yrotation Xrotation
											JOINT LeftHandThumb3
											{
												OFFSET 0.000000 0.000000 3.756516
												CHANNELS 6 Xposition Yposition Zposition Zrotation Yrotation Xrotation
												JOINT LeftHandThumb4
												{
													OFFSET 0.000000 0.000000 3.100006
													CHANNELS 6 Xposition Yposition Zposition Zrotation Yrotation Xrotation
													End Site
													{
														OFFSET 0.000000 0.000000 0.100006
													}
												}
											}
										}
									}
									JOINT LeftHandIndex1
									{
										OFFSET 0.086761 -2.345276 10.030899
										CHANNELS 6 Xposition Yposition Zposition Zrotation Yrotation Xrotation
										JOINT LeftHandIndex2
										{
											OFFSET 0.000000 0.000000 4.061096
											CHANNELS 6 Xposition Yposition Zposition Zrotation Yrotation Xrotation
											JOINT LeftHandIndex3
											{
												OFFSET 0.000000 0.000000 3.248871
												CHANNELS 6 Xposition Yposition Zposition Zrotation Yrotation Xrotation
												JOINT LeftHandIndex4
												{
													OFFSET 0.000000 0.000000 2.639709
													CHANNELS 6 Xposition Yposition Zposition Zrotation Yrotation Xrotation
													End Site
													{
														OFFSET 0.000000 0.000000 0.100006
													}
												}
											}
										}
									}
									JOINT LeftHandMiddle1
									{
										OFFSET -0.104095 -0.006775 9.502945
										CHANNELS 6 Xposition Yposition Zposition Zrotation Yrotation Xrotation
										JOINT LeftHandMiddle2
										{
											OFFSET 0.000000 0.000000 4.568726
											CHANNELS 6 Xposition Yposition Zposition Zrotation Yrotation Xrotation
											JOINT LeftHandMiddle3
											{
												OFFSET 0.000000 0.000000 3.654984
												CHANNELS 6 Xposition Yposition Zposition Zrotation Yrotation Xrotation
												JOINT LeftHandMiddle4
												{
													OFFSET 0.000000 0.000000 2.741241
													CHANNELS 6 Xposition Yposition Zposition Zrotation Yrotation Xrotation
													End Site
													{
														OFFSET 0.000000 0.000000 0.100006
													}
												}
											}
										}
									}
									JOINT LeftHandRing1
									{
										OFFSET -0.086761 2.267456 8.921707
										CHANNELS 6 Xposition Yposition Zposition Zrotation Yrotation Xrotation
										JOINT LeftHandRing2
										{
											OFFSET 0.000000 0.000000 4.061096
											CHANNELS 6 Xposition Yposition Zposition Zrotation Yrotation Xrotation
											JOINT LeftHandRing3
											{
												OFFSET 0.000000 0.000000 3.654984
												CHANNELS 6 Xposition Yposition Zposition Zrotation Yrotation Xrotation
												JOINT LeftHandRing4
												{
													OFFSET 0.000000 0.000000 2.741241
													CHANNELS 6 Xposition Yposition Zposition Zrotation Yrotation Xrotation
													End Site
													{
														OFFSET 0.000000 0.000000 0.100006
													}
												}
											}
										}
									}
									JOINT LeftHandPinky1
									{
										OFFSET 0.173492 4.467224 7.976990
										CHANNELS 6 Xposition Yposition Zposition Zrotation Yrotation Xrotation
										JOINT LeftHandPinky2
										{
											OFFSET 0.000000 0.000000 3.350403
											CHANNELS 6 Xposition Yposition Zposition Zrotation Yrotation Xrotation
											JOINT LeftHandPinky3
											{
												OFFSET 0.000000 0.000000 2.842758
												CHANNELS 6 Xposition Yposition Zposition Zrotation Yrotation Xrotation
												JOINT LeftHandPinky4
												{
													OFFSET 0.000000 0.000000 2.639709
													CHANNELS 6 Xposition Yposition Zposition Zrotation Yrotation Xrotation
													End Site
													{
														OFFSET 0.000000 0.000000 0.100006
													}
												}
											}
										}
									}
									JOINT LeftForeArmEnd
									{
										OFFSET 0.000000 0.000000 0.000000
										CHANNELS 6 Xposition Yposition Zposition Zrotation Yrotation Xrotation
										End Site
										{
											OFFSET 0.000000 0.000000 0.100006
										}
									}
								}
								JOINT LeftArmEnd
								{
									OFFSET 0.000000 0.000000 0.000000
									CHANNELS 6 Xposition Yposition Zposition Zrotation Yrotation Xrotation
									End Site
									{
										OFFSET 0.000000 0.000000 0.100006
									}
								}
							}
						}
					}
				}
			}
		}
	}
	JOINT RightUpLeg
	{
		OFFSET -11.289948 0.000000 0.000000
		CHANNELS 6 Xposition Yposition Zposition Zrotation Yrotation Xrotation
		JOINT RightLeg
		{
			OFFSET 0.000000 0.000000 -38.200329
			CHANNELS 6 Xposition Yposition Zposition Zrotation Yrotation Xrotation
			JOINT RightFoot
			{
				OFFSET 0.000000 0.000000 -39.900856
				CHANNELS 6 Xposition Yposition Zposition Zrotation Yrotation Xrotation
				JOINT RightToeBase
				{
					OFFSET 0.000000 -15.261658 0.000001
					CHANNELS 6 Xposition Yposition Zposition Zrotation Yrotation Xrotation
					JOINT RightToeBaseEnd
					{
						OFFSET 0.000000 -7.370728 0.000000
						CHANNELS 6 Xposition Yposition Zposition Zrotation Yrotation Xrotation
						End Site
						{
							OFFSET 0.000000 0.000000 0.100000
						}
					}
				}
				JOINT RightLegEnd
				{
					OFFSET 0.000000 0.000000 0.000000
					CHANNELS 6 Xposition Yposition Zposition Zrotation Yrotation Xrotation
					End Site
					{
						OFFSET 0.000000 0.000000 0.100000
					}
				}
			}
			JOINT RightUpLegEnd
			{
				OFFSET 0.000000 0.000000 0.000000
				CHANNELS 6 Xposition Yposition Zposition Zrotation Yrotation Xrotation
				End Site
				{
					OFFSET 0.000000 0.000000 0.099998
				}
			}
		}
	}
	JOINT LeftUpLeg
	{
		OFFSET 11.315674 0.000000 0.000000
		CHANNELS 6 Xposition Yposition Zposition Zrotation Yrotation Xrotation
		JOINT LeftLeg
		{
			OFFSET 0.000000 0.000000 -38.200329
			CHANNELS 6 Xposition Yposition Zposition Zrotation Yrotation Xrotation
			JOINT LeftFoot
			{
				OFFSET 0.000000 0.000000 -39.900856
				CHANNELS 6 Xposition Yposition Zposition Zrotation Yrotation Xrotation
				JOINT LeftToeBase
				{
					OFFSET 0.000000 -15.261658 0.000001
					CHANNELS 6 Xposition Yposition Zposition Zrotation Yrotation Xrotation
					JOINT LeftToeBaseEnd
					{
						OFFSET 0.000000 -7.539978 0.000000
						CHANNELS 6 Xposition Yposition Zposition Zrotation Yrotation Xrotation
						End Site
						{
							OFFSET 0.000000 0.000000 0.100000
						}
					}
				}
				JOINT LeftLegEnd
				{
					OFFSET 0.000000 0.000000 0.000000
					CHANNELS 6 Xposition Yposition Zposition Zrotation Yrotation Xrotation
					End Site
					{
						OFFSET 0.000000 0.000000 0.100000
					}
				}
			}
			JOINT LeftUpLegEnd
			{
				OFFSET 0.000000 0.000000 0.000000
				CHANNELS 6 Xposition Yposition Zposition Zrotation Yrotation Xrotation
				End Site
				{
					OFFSET 0.000000 0.000000 0.099998
				}
			}
		}
	}
}
MOTION
Frames: 2
Frame Time: 0.016667
18.152527 -13.415161 86.938934 1.203418 -4.784987 -19.270665 -0.000003 2.080084 8.814242 -0.202095 1.810241 11.191889 -0.000015 0.000028 8.844130 0.513023 2.532074 3.642540 -0.000010 0.000017 11.682266 -2.100201 2.624897 11.600671 -0.000015 0.000025 11.746693 -1.417849 1.920021 3.080010 0.000006 0.000007 17.658272 0.056270 -3.208622 7.470787 0.000014 -0.000012 5.101480 1.560006 -1.282087 -1.923317 0.000006 -0.000013 5.101527 -0.576912 -0.559511 -18.015503 -0.000001 -0.000000 11.655061 0.000000 -0.000000 -0.000000 -2.625385 0.000023 11.175261 11.421055 -95.474891 0.378004 0.000011 0.000006 10.434677 -53.220909 -54.452874 54.071497 -0.000010 -0.000015 29.628422 18.433586 -0.042385 22.620762 -0.000084 -0.000011 22.857618 29.770664 -11.175813 -0.336747 -2.867313 -2.944290 3.959557 31.542097 -18.150178 50.178712 0.000004 0.000000 3.350433 -14.636458 9.151779 -26.138070 -0.000004 0.000004 3.756508 -9.712245 7.081430 -17.867934 -0.000008 -0.000001 3.147338 0.000000 -0.000001 -0.000000 -0.086761 -2.345274 10.030891 -12.949302 -20.166895 9.123102 0.000008 -0.000005 4.061087 0.216301 -14.988329 2.156377 0.000010 -0.000005 3.248846 -0.283703 -14.988311 2.156387 0.000010 0.000010 2.639709 -0.000001 0.000001 -0.000001 0.104084 -0.006779 9.502960 -7.023119 -18.007915 6.847497 0.000012 -0.000030 4.568724 0.420249 -13.061205 0.696627 0.000001 0.000016 3.654989 -0.081278 -13.060948 0.696967 -0.000002 -0.000004 2.741243 0.000001 -0.000001 -0.000001 0.086754 2.267451 8.921711 1.873960 -15.835187 6.326773 0.000033 0.000006 4.061099 -0.936197 -10.851999 -0.671793 0.000005 -0.000021 3.654969 0.065735 -10.852029 -0.672178 -0.000003 0.000005 2.741214 -0.000000 -0.000002 -0.000002 -0.173481 4.467247 7.976990 11.120405 -13.299224 5.182398 -0.000004 0.000008 3.350399 -1.884129 -8.228870 -1.610821 -0.000012 0.000023 2.842753 0.115872 -8.228753 -1.610785 0.000006 -0.000000 2.639688 0.000001 0.000001 -0.000003 -0.000002 0.000006 0.000021 -0.000000 0.000000 -0.000001 0.000013 0.000006 0.000002 -0.000000 -0.000000 0.000001 2.625404 0.000019 11.175246 -9.449330 94.136748 -0.674807 -0.000031 -0.000008 10.813606 40.338592 49.592248 29.592611 0.000017 -0.000038 28.724792 -7.979752 0.722670 46.146192 0.644302 0.328785 25.716225 -22.010286 11.279201 -12.947874 2.867329 -2.944275 3.959595 -31.519793 18.507046 49.649536 -0.000011 -0.000023 3.350433 15.431441 -9.409853 -27.445891 0.000000 -0.000031 3.756527 10.228807 -7.339072 -18.751919 0.000001 -0.000005 3.100033 -0.000000 -0.000000 -0.000001 0.086761 -2.345261 10.030878 -4.708744 24.389989 -3.365727 -0.000002 0.000072 4.061119 0.116914 17.329385 -2.513383 0.000015 -0.000028 3.248896 -0.383063 17.329389 -2.513382 -0.000009 0.000007 2.639721 0.000000 -0.000001 -0.000000 -0.104083 -0.006780 9.502961 0.277227 21.839369 -0.325568 -0.000002 -0.000021 4.568736 0.386712 15.497785 -0.832627 0.000050 0.000026 3.654964 -0.113304 15.497621 -0.832624 0.000045 0.000013 2.741260 -0.000001 -0.000000 -0.000000 -0.086754 2.267467 8.921719 8.244939 18.778150 4.761099 0.000005 -0.000011 4.061118 -0.899612 13.552588 0.844755 0.000004 0.000008 3.655011 0.100374 13.552601 0.844763 -0.000007 0.000002 2.741256 0.000000 -0.000001 -0.000000 0.173500 4.467192 7.976990 16.043093 13.471225 9.050466 0.000000 -0.000011 3.350382 -1.807527 10.574508 2.079583 0.000003 0.000025 2.842770 0.192470 10.574520 2.079592 -0.000013 -0.000008 2.639712 0.000001 -0.000001 -0.000003 0.000001 -0.000012 -0.000007 0.000002 0.000001 -0.000002 0.000014 -0.000001 0.000027 -0.000000 0.000002 -0.000001 -11.289949 0.000006 0.000023 -11.853962 23.185338 8.699884 0.000052 0.000085 -38.200306 -0.863122 0.389987 24.313366 0.000019 0.000049 -39.900841 -24.162745 -7.825997 20.534788 0.000020 -15.261628 0.000002 0.516971 3.110777 -16.084218 0.000039 -7.370745 0.000000 0.000002 0.000001 -0.000000 0.000039 0.000112 -0.000001 0.000001 -0.000004 -0.000002 0.000027 0.000062 -0.000006 -0.000000 -0.000000 -0.000000 11.315669 0.000025 0.000008 -5.410189 9.830706 15.000991 -0.000025 -0.000082 -38.200333 0.028930 -0.006708 13.268103 -0.000015 0.000026 -39.900856 15.251024 -2.943057 13.931518 -0.000041 -15.261677 0.000016 -0.900846 -0.014565 -17.658657 -0.000000 -7.540039 0.000001 -0.000000 0.000000 0.000000 0.000010 0.000005 0.000001 -0.000001 -0.000000 -0.000001 -0.000056 -0.000005 0.000005 0.000001 0.000000 0.000001 
18.468811 -13.472961 86.906189 0.657123 -4.833358 -19.109018 0.000011 2.080055 8.814246 -0.215225 1.812916 11.127541 0.000009 -0.000028 8.844128 0.468788 2.388620 3.535584 -0.000015 -0.000003 11.682266 -2.059311 2.691515 11.594081 0.000006 0.000017 11.746690 -1.417372 2.124937 3.115774 -0.000007 0.000015 17.658268 0.283211 -2.830806 7.615024 -0.000011 -0.000005 5.101516 1.643763 -1.420385 -1.816182 -0.000006 -0.000008 5.101498 -0.504111 -0.750938 -18.057818 -0.000003 -0.000001 11.655104 0.000000 -0.000000 0.000000 -2.625401 -0.000017 11.175195 11.555159 -95.213909 0.381164 0.000008 -0.000005 10.434696 -53.413141 -54.682150 54.246961 -0.000004 0.000031 29.628401 19.050146 -0.052511 22.787104 -0.000038 -0.000015 22.857580 32.320964 -10.659616 -0.223460 -2.867317 -2.944305 3.959572 31.542090 -18.150169 50.178726 0.000000 -0.000015 3.350365 -14.636453 9.151772 -26.138079 -0.000046 -0.000008 3.756481 -9.712262 7.081440 -17.867929 -0.000005 0.000021 3.147330 -0.000001 -0.000001 0.000000 -0.086784 -2.345285 10.030884 -13.204628 -21.117434 9.364968 0.000021 0.000019 4.061096 0.188826 -15.675300 2.260274 -0.000007 -0.000027 3.248856 -0.311174 -15.675296 2.260256 -0.000011 -0.000018 2.639706 0.000003 0.000002 0.000000 0.104088 -0.006779 9.502953 -7.225499 -18.929041 7.029657 -0.000003 0.000083 4.568711 0.411777 -13.719788 0.733237 -0.000004 -0.000020 3.655001 -0.088264 -13.723084 0.733410 -0.000015 -0.000006 2.741255 0.000000 0.000002 -0.000003 0.086761 2.267472 8.921703 1.724921 -16.726904 6.322973 -0.000015 -0.000008 4.061075 -0.928416 -11.483536 -0.711944 -0.000002 0.000026 3.654977 0.071587 -11.483543 -0.711937 -0.000005 -0.000009 2.741233 0.000001 0.000002 -0.000001 -0.173500 4.467243 7.976971 11.016562 -14.083839 4.994445 -0.000004 -0.000030 3.350395 -1.867582 -8.791043 -1.722590 -0.000004 0.000028 2.842779 0.132425 -8.791054 -1.722615 0.000005 0.000009 2.639694 -0.000002 0.000000 -0.000000 0.000025 -0.000003 -0.000007 0.000000 -0.000001 -0.000000 -0.000006 0.000005 -0.000027 -0.000000 0.000001 -0.000001 2.625402 0.000007 11.175196 -9.305777 94.413596 -0.632390 -0.000015 0.000019 10.813606 41.739730 47.864142 29.441332 -0.000002 0.000000 28.724785 -9.517992 0.684370 47.449707 0.644302 0.328930 25.716202 -20.562573 11.801114 -12.202210 2.867344 -2.944214 3.959579 -31.510934 18.686315 49.385256 0.000004 0.000000 3.350418 15.831327 -9.532174 -28.101432 0.000004 -0.000031 3.756519 10.488695 -7.464903 -19.195009 0.000001 0.000001 3.100013 -0.000000 -0.000000 -0.000002 0.086765 -2.345197 10.030899 -4.519449 25.756184 -3.460535 0.000022 -0.000013 4.061129 0.071306 18.290372 -2.662540 0.000009 0.000031 3.248928 -0.428694 18.290379 -2.662525 0.000015 -0.000005 2.639739 0.000001 0.000002 -0.000000 -0.104096 -0.006721 9.502973 0.503074 23.108851 -0.173845 -0.000002 -0.000027 4.568727 0.372762 16.392527 -0.883372 0.000036 0.000030 3.655017 -0.127240 16.392505 -0.883367 0.000002 0.000005 2.741261 -0.000002 0.000000 -0.000000 -0.086761 2.267511 8.921719 8.497320 19.865182 5.168220 0.000000 -0.000021 4.061129 -0.887212 14.345262 0.896240 0.000011 -0.000008 3.654993 0.112792 14.345277 0.896236 -0.000034 0.000005 2.741258 -0.000002 0.000002 0.000001 0.173500 4.467299 7.976990 16.269915 14.343570 9.530423 -0.000004 -0.000013 3.350395 -1.782037 11.242063 2.214274 -0.000006 -0.000016 2.842785 0.217959 11.242063 2.214263 -0.000007 0.000013 2.639692 -0.000002 -0.000001 -0.000002 0.000006 0.000066 0.000002 0.000000 0.000002 0.000003 0.000008 0.000051 0.000022 0.000001 0.000002 0.000001 -11.289972 -0.000053 -0.000008 -11.899456 23.280847 7.944620 0.000041 0.000054 -38.200317 -0.808295 0.374431 24.853546 0.000023 0.000040 -39.900833 -24.344029 -7.562085 20.779971 0.000036 -15.261649 -0.000003 0.418869 3.122551 -16.105729 0.000017 -7.370750 -0.000001 0.000003 0.000002 0.000002 0.000021 0.000109 -0.000000 0.000002 -0.000002 0.000001 0.000001 0.000081 -0.000003 -0.000003 -0.000001 -0.000001 11.315656 -0.000069 0.000015 -5.141950 10.047286 14.995429 0.000031 -0.000002 -38.200333 0.003833 -0.000804 13.170001 -0.000058 0.000040 -39.900852 15.627994 -3.194985 13.791975 -0.000027 -15.261688 0.000006 -0.885630 0.014804 -17.567767 0.000000 -7.540041 0.000000 0.000000 -0.000000 0.000001 0.000005 0.000001 0.000001 -0.000000 0.000000 -0.000001 -0.000043 -0.000048 0.000003 -0.000002 0.000000 0.000000 
